# xmcd
#
# Track frame offsets:
#	150
#	34466
#	55139
#	74043
#	99083
#	131413
#	168726
#	213909
#	232967
#	252838
#	283821
#	308144
#
# Disc length: 4653 seconds
#
# Revision: 0
# Processed by: cddbd v1.5.2PL0 Copyright (c) Steve Scherf et al.
# Submitted via: dBpowerAMP V4.0
#
DISCID=ae122b0c
DTITLE=CD6 - Verdi Best 100
DYEAR=1900
DGENRE=
TTITLE0=01 La forza del destino
TTITLE1=02 Traviata-Prelude ActI
TTITLE2=03 Traviata-Prelude ActIII
TTITLE3=04 Luisa Miller
TTITLE4=05 Nabucco
TTITLE5=06 I vespri siciliani
TTITLE6=07 Macbeth-BalletMusic ActIII
TTITLE7=08 Aida-Prelude ActI
TTITLE8=09 Aida-Ballet music ActII
TTITLE9=10 L'inverno
TTITLE10=11 L'estate
TTITLE11=12 L'autunno
EXTD=
EXTT0=
EXTT1=
EXTT2=
EXTT3=
EXTT4=
EXTT5=
EXTT6=
EXTT7=
EXTT8=
EXTT9=
EXTT10=
EXTT11=
PLAYORDER=
